<svg xmlns="http://www.w3.org/2000/svg" width="1024" height="500" viewBox="0 0 1024 500">
  <defs>
    <linearGradient id="bg" x1="0" y1="0" x2="1" y2="1"><stop stop-color="#17130f"/><stop offset=".58" stop-color="#51301d"/><stop offset="1" stop-color="#a95120"/></linearGradient>
    <radialGradient id="glow"><stop stop-color="#f7b37d" stop-opacity=".55"/><stop offset="1" stop-color="#f7b37d" stop-opacity="0"/></radialGradient>
    <filter id="shadow"><feDropShadow dx="0" dy="18" stdDeviation="18" flood-opacity=".3"/></filter>
  </defs>
  <rect width="1024" height="500" fill="url(#bg)"/>
  <circle cx="870" cy="80" r="290" fill="url(#glow)"/>
  <circle cx="80" cy="500" r="220" fill="#5e9b7f" opacity=".16"/>
  <text x="72" y="92" fill="#e89155" font-family="Arial,sans-serif" font-size="24" font-weight="700" letter-spacing="4">PADELCOMPARE</text>
  <text x="72" y="190" fill="#fffaf4" font-family="Arial,sans-serif" font-size="64" font-weight="800">Выбери ракетку</text>
  <text x="72" y="260" fill="#fffaf4" font-family="Arial,sans-serif" font-size="64" font-weight="800">без догадок.</text>
  <text x="74" y="325" fill="#e7d8cc" font-family="Arial,sans-serif" font-size="25">Подбор · Сравнение · 150 моделей офлайн</text>
  <g transform="translate(734 42) rotate(7 115 220)" filter="url(#shadow)">
    <rect width="230" height="440" rx="38" fill="#0e0d0c"/>
    <rect x="8" y="8" width="214" height="424" rx="31" fill="#fff7ed"/>
    <rect x="82" y="17" width="66" height="18" rx="9" fill="#0e0d0c"/>
    <text x="27" y="82" fill="#c96c2f" font-family="Arial,sans-serif" font-size="11" font-weight="700" letter-spacing="2">ТОП ДЛЯ ТЕБ</text>
    <text x="27" y="119" fill="#211811" font-family="Arial,sans-serif" font-size="25" font-weight="800">Nox AT10 18K</text>
    <ellipse cx="115" cy="235" rx="62" ry="90" fill="#2d2722"/>
    <ellipse cx="115" cy="235" rx="52" ry="79" fill="none" stroke="#d1783e" stroke-width="10"/>
    <circle cx="96" cy="216" r="4" fill="#fff7ed"/><circle cx="118" cy="205" r="4" fill="#fff7ed"/><circle cx="137" cy="225" r="4" fill="#fff7ed"/>
    <rect x="105" y="313" width="20" height="70" rx="8" fill="#2d2722"/>
    <rect x="24" y="354" width="182" height="52" rx="18" fill="#211811"/>
    <text x="39" y="388" fill="#7dd39a" font-family="Arial,sans-serif" font-size="26" font-weight="800">9.1</text>
    <text x="95" y="385" fill="#fff" font-family="Arial,sans-serif" font-size="12">баланс и контроль</text>
  </g>
</svg>
