<svg xmlns="http://www.w3.org/2000/svg" width="1080" height="1920" viewBox="0 0 1080 1920">
  <defs><linearGradient id="bg" x2="0" y2="1"><stop stop-color="#18130f"/><stop offset="1" stop-color="#743516"/></linearGradient></defs>
  <rect width="1080" height="1920" fill="url(#bg)"/>
  <circle cx="930" cy="220" r="330" fill="#e98b4d" opacity=".22"/>
  <text x="72" y="130" fill="#e89155" font-family="Arial,sans-serif" font-size="28" font-weight="700" letter-spacing="5">PADELCOMPARE</text>
  <text x="72" y="245" fill="#fffaf4" font-family="Arial,sans-serif" font-size="72" font-weight="800">150 ракеток.</text>
  <text x="72" y="330" fill="#fffaf4" font-family="Arial,sans-serif" font-size="72" font-weight="800">Всегда с тобой.</text>
  <text x="74" y="397" fill="#e9d8cb" font-family="Arial,sans-serif" font-size="30">Каталог работает даже без интернета</text>
  <g transform="translate(110 480)">
    <rect width="860" height="1320" rx="76" fill="#0f0e0d"/>
    <rect x="18" y="18" width="824" height="1284" rx="61" fill="#f7efe3"/>
    <rect x="324" y="35" width="212" height="45" rx="24" fill="#0f0e0d"/>
    <text x="62" y="135" fill="#c96c2f" font-family="Arial,sans-serif" font-size="23" font-weight="700" letter-spacing="3">КАТАЛОГ</text>
    <text x="62" y="207" fill="#211811" font-family="Arial,sans-serif" font-size="52" font-weight="800">Найди свою модель</text>
    <rect x="62" y="246" width="736" height="78" rx="28" fill="#fffdf9" stroke="#ddd0c2" stroke-width="2"/>
    <text x="96" y="296" fill="#8b8077" font-family="Arial,sans-serif" font-size="25">Поиск по бренду или модели</text>
    <g transform="translate(62 360)">
      <rect width="350" height="710" rx="40" fill="#fffaf4" stroke="#ded1c3" stroke-width="2"/>
      <rect x="28" y="28" width="294" height="390" rx="30" fill="#eee3d7"/>
      <ellipse cx="175" cy="205" rx="90" ry="130" fill="#302923"/><ellipse cx="175" cy="205" rx="75" ry="111" fill="none" stroke="#d1793f" stroke-width="16"/><rect x="160" y="322" width="30" height="100" rx="10" fill="#302923"/>
      <text x="28" y="475" fill="#c96c2f" font-family="Arial,sans-serif" font-size="19" font-weight="700">NOX</text>
      <text x="28" y="525" fill="#211811" font-family="Arial,sans-serif" font-size="34" font-weight="800">AT10 18K</text>
      <text x="28" y="568" fill="#776c63" font-family="Arial,sans-serif" font-size="21">Капля · Баланс</text>
      <rect x="28" y="616" width="294" height="58" rx="29" fill="#c96c2f"/><text x="105" y="654" fill="#fff" font-family="Arial,sans-serif" font-size="23" font-weight="700">Подробнее</text>
    </g>
    <g transform="translate(448 360)">
      <rect width="350" height="710" rx="40" fill="#fffaf4" stroke="#ded1c3" stroke-width="2"/>
      <rect x="28" y="28" width="294" height="390" rx="30" fill="#eee3d7"/>
      <ellipse cx="175" cy="205" rx="94" ry="132" fill="#273039"/><ellipse cx="175" cy="205" rx="78" ry="114" fill="none" stroke="#97c962" stroke-width="16"/><rect x="160" y="325" width="30" height="97" rx="10" fill="#273039"/>
      <text x="28" y="475" fill="#c96c2f" font-family="Arial,sans-serif" font-size="19" font-weight="700">BULLPADEL</text>
      <text x="28" y="525" fill="#211811" font-family="Arial,sans-serif" font-size="34" font-weight="800">Vertex 04</text>
      <text x="28" y="568" fill="#776c63" font-family="Arial,sans-serif" font-size="21">Алмаз · Мощность</text>
      <rect x="28" y="616" width="294" height="58" rx="29" fill="#c96c2f"/><text x="105" y="654" fill="#fff" font-family="Arial,sans-serif" font-size="23" font-weight="700">Подробнее</text>
    </g>
    <line x1="62" y1="1140" x2="798" y2="1140" stroke="#d9cdc0" stroke-width="2"/>
    <text x="80" y="1210" fill="#c96c2f" font-family="Arial,sans-serif" font-size="21" font-weight="700">ГЛАВНАЯ</text><text x="274" y="1210" fill="#211811" font-family="Arial,sans-serif" font-size="21" font-weight="800">КАТАЛОГ</text><text x="480" y="1210" fill="#8b8077" font-family="Arial,sans-serif" font-size="21">ПОДБОР</text><text x="672" y="1210" fill="#8b8077" font-family="Arial,sans-serif" font-size="21">МОИ</text>
  </g>
</svg>
